<?xml version="1.0"?>
<svg xmlns="http://www.w3.org/2000/svg" xmlns:xlink="http://www.w3.org/1999/xlink" version="1.1" id="Capa_1" x="0px" y="0px" viewBox="0 0 512 512" style="enable-background:new 0 0 512 512;" xml:space="preserve" width="512px" height="512px" class=""><g><circle style="fill:#26A69A" cx="256" cy="256" r="256" data-original="#590F38" class="" data-old_color="#26a69a"/><path style="fill:#00897B" d="M511.637,269.638L395.284,153.285l-7.369,2.756L295.5,63.625l-79,33l55.24,55.24L131.983,393.461  L250.452,511.93c1.845,0.039,3.693,0.07,5.548,0.07C392.809,512,504.548,404.682,511.637,269.638z" data-original="#3F0B2A" class="" data-old_color="#00897b"/><circle style="fill:#D1CECE" cx="256" cy="284" r="149" data-original="#FFFFFF" class="" data-old_color="#D3D0D0"/><path style="fill:#968B88" d="M256,135c-0.111,0-0.222,0.004-0.333,0.004v297.992c0.111,0,0.222,0.004,0.333,0.004  c82.291,0,149-66.709,149-149S338.291,135,256,135z" data-original="#E0E0E0" class="" data-old_color="#968A87"/><path style="fill:#616161" d="M377.169,171.399l18.115-18.114l-40.305-40.306l-23.67,23.669  c-17.959-9.216-37.814-15.24-58.81-17.328V96.625h23v-33h-79v33h23v22.696c-20.996,2.088-40.85,8.112-58.81,17.328l-23.67-23.669  l-40.305,40.306l18.115,18.114C107.342,200.959,90.5,240.546,90.5,284c0,91.257,74.243,165.5,165.5,165.5S421.5,375.257,421.5,284  C421.5,240.546,404.658,200.959,377.169,171.399z M256,416.5c-73.061,0-132.5-59.439-132.5-132.5S182.939,151.5,256,151.5  S388.5,210.939,388.5,284S329.061,416.5,256,416.5z" data-original="#CCCCCC" class="" data-old_color="#CCCCCC"/><path style="fill:#424242" d="M377.169,171.399l18.115-18.114l-40.305-40.306l-23.67,23.669  c-17.959-9.216-37.814-15.24-58.81-17.328V96.625h23v-33h-39.833v87.879c0.111,0,0.222-0.004,0.333-0.004  c73.061,0,132.5,59.439,132.5,132.5S329.061,416.5,256,416.5c-0.111,0-0.222-0.004-0.333-0.004v33c0.111,0,0.222,0.004,0.333,0.004  c91.257,0,165.5-74.243,165.5-165.5C421.5,240.546,404.658,200.959,377.169,171.399z" data-original="#B3B3B3" class="" data-old_color="#B3B3B3"/><rect x="238" y="190" style="fill:#F44336" width="36" height="126" data-original="#FF6838" class="" data-old_color="#f44336"/><rect x="255.67" y="190" style="fill:#C62828" width="18.333" height="126" data-original="#AE4E32" class="active-path" data-old_color="#c62828"/></g> </svg>
